<svg id="evXRtKcsSbT1" xmlns="http://www.w3.org/2000/svg" xmlns:xlink="http://www.w3.org/1999/xlink" viewBox="0 0 100 100" shape-rendering="geometricPrecision" text-rendering="geometricPrecision" project-id="fd40d2b5b8f2462ca821167e6d67df36" export-id="cb8e7b3a25d54256b834fb909f1ac4aa" cached="false"><path d="M68.804141,15.212339c-7.817452,8.873864-5.493344,4.859497-6.761039,6.549757s-2.746673,4.225649-4.648215,2.535389-2.112825.84513-2.53539-1.267695-4.859497-5.070779-4.859497-2.746672-6.127193,1.056413-5.704628,5.704627.845129,5.915909-3.380521,9.718994-14.367208,8.092119-15.423621,14.29326-5.704627,19.300654-10.564125,20.357067-3.803086.422565-5.282063-1.69026-3.803084,2.957954-2.957954,4.648214s5.493344,9.718994,11.620536,6.761039q6.127192-2.957955,7.183606,0l-.845131-2.535391q7.183605,1.267695,10.352842-3.38052t3.169237-5.07078" transform="translate(.000003 0.000004)" fill="none" stroke="#3f5787" stroke-width="0.5"/><path d="M38.168181,69.089372Q52.32411,66.976547,54.8595,63.384745c2.53539-3.591802,7.183604-11.341356,7.183604-13.384746s13.522077-2.03888,6.761038-8.166069q-6.761039-6.127189,0-6.127189q6.761039,1.267688,0-4.225653c-6.761039-5.493341-4.225647-3.803081,0-5.493341s2.957952-8.4513,12.043099-5.704628s10.352842,5.070779,10.352842,0s1.267695-.211278-5.493345-5.070779-6.761042,0-11.831819,0q-5.070777,0-5.070777,0" transform="translate(.000002 0.000003)" fill="none" stroke="#3f5787" stroke-width="0.5"/></svg>
